# xmcd
#
# Track frame offsets: 
#        150
#        16961
#        36208
#        50784
#        70437
#        95504
#        115534
#        129363
#        147000
#        170553
#        188600
#
# Disc length: 2720 seconds
#
# Revision: 0
# Processed by: cddbd v1.5.2PL0 Copyright (c) Steve Scherf et al.
# Submitted via: ExactAudioCopy v0.99pb5
#
DISCID=930a9e0b
DTITLE=Alex Rossi and Greg Wilson - Acoustic
DYEAR=2009
DGENRE=Blues
TTITLE0=Shame shame
TTITLE1=It's my soul
TTITLE2=If I had a possesion
TTITLE3=How sweet it is
TTITLE4=Need your love so bad
TTITLE5=Let it rain
TTITLE6=Key to the highway
TTITLE7=Higher ground
TTITLE8=Mountain range
TTITLE9=One way out
TTITLE10=Roll gipsy roll
EXTD=
EXTT0=
EXTT1=
EXTT2=
EXTT3=
EXTT4=
EXTT5=
EXTT6=
EXTT7=
EXTT8=
EXTT9=
EXTT10=
PLAYORDER=
